<?xml version="1.0" standalone="no"?>
<!DOCTYPE svg PUBLIC "-//W3C//DTD SVG 20010904//EN"
 "http://www.w3.org/TR/2001/REC-SVG-20010904/DTD/svg10.dtd">
<svg version="1.0" xmlns="http://www.w3.org/2000/svg"
 width="142.000000pt" height="370.000000pt" viewBox="0 0 142.000000 370.000000"
 preserveAspectRatio="xMidYMid meet">

<g transform="translate(0.000000,370.000000) scale(0.100000,-0.100000)"
fill="#000000" stroke="none">
<path d="M630 3603 c-80 -6 -87 -10 -94 -50 -4 -21 -9 -46 -12 -55 -8 -26 32
-24 46 2 12 23 30 27 30 6 0 -8 12 -18 26 -23 25 -8 26 -10 10 -26 -12 -12
-34 -17 -68 -17 -42 0 -49 -3 -44 -16 3 -9 6 -110 6 -225 l0 -209 39 0 c47 0
71 -8 71 -24 0 -15 -58 -47 -65 -35 -6 8 -55 14 -55 6 0 -42 -56 -275 -118
-492 -82 -289 -115 -413 -132 -502 -10 -57 -16 -1816 -5 -1833 18 -29 265 -70
419 -70 112 0 313 23 364 41 33 11 33 12 31 73 -1 33 -2 275 -1 536 1 530 -9
702 -22 380 -20 -477 -32 -296 -40 600 -4 392 -8 510 -20 565 -8 39 -17 84
-20 100 -3 17 -31 129 -61 250 -31 121 -59 247 -62 279 -4 38 -13 66 -25 78
-22 22 -22 28 -3 42 12 9 15 52 17 233 3 215 2 222 -17 228 -19 5 -19 6 3 25
20 17 22 25 16 70 -5 40 -11 51 -28 55 -37 7 -139 12 -186 8z m-20 -38 c0 -8
-7 -15 -15 -15 -8 0 -15 7 -15 15 0 8 7 15 15 15 8 0 15 -7 15 -15z m-24 -762
c-4 -54 -13 -144 -21 -201 -8 -56 -24 -196 -35 -310 -24 -239 -32 -275 -66
-309 -20 -20 -28 -22 -39 -13 -31 26 -27 89 19 290 25 107 64 295 88 418 23
122 47 222 52 222 5 0 6 -40 2 -97z"/>
</g>
</svg>
