<?xml version="1.0" standalone="no"?>
<!DOCTYPE svg PUBLIC "-//W3C//DTD SVG 20010904//EN"
 "http://www.w3.org/TR/2001/REC-SVG-20010904/DTD/svg10.dtd">
<svg version="1.0" xmlns="http://www.w3.org/2000/svg"
 width="500.000000pt" height="500.000000pt" viewBox="0 0 500.000000 500.000000"
 preserveAspectRatio="xMidYMid meet">

<g transform="translate(0.000000,500.000000) scale(0.100000,-0.100000)"
fill="#000000" stroke="none">
<path d="M0 2500 l0 -2500 2500 0 2500 0 0 2500 0 2500 -2500 0 -2500 0 0
-2500z m1407 -455 c30 -82 56 -151 57 -153 2 -1 27 67 57 153 l53 155 58 0
c34 0 58 -4 58 -10 0 -6 -6 -10 -12 -9 -38 5 -38 3 -38 -195 l0 -195 28 -4
c15 -2 -11 -4 -58 -4 -47 0 -73 2 -57 4 l27 4 0 186 c0 103 -2 184 -3 182 -2
-2 -32 -87 -67 -189 -35 -102 -65 -187 -67 -189 -7 -9 -16 12 -74 180 -33 95
-62 175 -65 178 -2 2 -4 -75 -4 -172 l0 -176 28 -4 c15 -2 -2 -4 -38 -4 -36 0
-53 2 -37 4 l27 4 0 201 c0 172 -2 199 -15 195 -8 -4 -17 -2 -21 4 -4 6 15 9
52 7 l57 -3 54 -150z m2178 144 c73 -20 135 -110 135 -196 0 -50 -27 -124 -57
-155 -46 -49 -82 -58 -212 -57 -64 1 -104 4 -88 6 l27 4 0 195 c0 204 0 202
-42 195 -5 0 -8 4 -8 9 0 14 194 13 245 -1z m-2051 -822 c18 -49 19 -57 7 -57
-5 0 -12 13 -16 30 -4 16 -11 32 -16 35 -11 8 -12 35 0 35 4 0 16 -19 25 -43z
m58 -24 c3 -30 0 -43 -9 -43 -13 0 -17 84 -4 105 6 11 8 1 13 -62z m101 9 c2
-37 -1 -52 -10 -52 -14 0 -19 91 -6 103 10 11 12 4 16 -51z m42 47 c11 -16 1
-19 -13 -3 -7 8 -8 14 -3 14 5 0 13 -5 16 -11z m120 -29 c39 -62 30 -82 -10
-21 -38 58 -40 61 -25 61 5 0 21 -18 35 -40z m127 -27 c3 -30 0 -43 -9 -43
-14 0 -19 91 -5 104 8 9 9 2 14 -61z m291 52 c-3 -9 -8 -14 -10 -11 -3 3 -2 9
2 15 9 16 15 13 8 -4z m33 -44 c-15 -28 -31 -51 -36 -51 -10 0 8 42 38 88 26
40 24 16 -2 -37z m360 4 c0 -30 -5 -55 -11 -55 -6 0 -9 23 -7 55 5 72 20 72
18 0z m42 30 c-3 -3 -9 2 -12 12 -6 14 -5 15 5 6 7 -7 10 -15 7 -18z m122 -19
c30 -44 37 -66 23 -66 -8 0 -63 92 -63 104 0 14 11 3 40 -38z m220 -17 c0 -27
-4 -49 -10 -49 -5 0 -10 25 -10 56 0 34 4 53 10 49 6 -3 10 -28 10 -56z m150
6 c0 -30 -4 -55 -10 -55 -5 0 -10 25 -10 55 0 30 5 55 10 55 6 0 10 -25 10
-55z m300 33 c0 -6 -6 -5 -15 2 -8 7 -15 14 -15 16 0 2 7 1 15 -2 8 -4 15 -11
15 -16z m-1450 -39 c0 -19 -25 -49 -41 -49 -6 0 -3 8 6 17 12 12 15 27 11 52
-5 33 -4 35 9 17 8 -11 15 -28 15 -37z m85 2 c0 -50 -10 -57 -24 -17 -8 20 5
66 18 66 3 0 6 -22 6 -49z m65 -1 c0 -15 -6 -32 -12 -38 -10 -8 -13 0 -13 38
0 38 3 46 13 38 6 -6 12 -23 12 -38z m262 0 c13 -39 13 -50 3 -50 -7 0 -18 20
-24 44 -13 53 -13 56 -3 56 5 0 15 -22 24 -50z m648 0 c0 -15 -6 -32 -12 -38
-10 -8 -13 0 -13 38 0 38 3 46 13 38 6 -6 12 -23 12 -38z m233 -3 c11 -32 12
-47 5 -45 -14 5 -40 77 -32 90 8 12 8 11 27 -45z m102 43 c-3 -5 8 -16 25 -25
29 -15 41 -47 21 -59 -5 -4 -7 2 -4 13 3 14 -3 21 -26 29 -29 10 -40 30 -24
45 10 10 15 8 8 -3z m-1 -75 c3 -8 1 -15 -4 -15 -6 0 -10 7 -10 15 0 8 2 15 4
15 2 0 6 -7 10 -15z m-1704 -5 c0 -5 -5 -10 -11 -10 -5 0 -7 5 -4 10 3 6 8 10
11 10 2 0 4 -4 4 -10z m590 0 c0 -5 -5 -10 -11 -10 -5 0 -7 5 -4 10 3 6 8 10
11 10 2 0 4 -4 4 -10z m380 0 c0 -5 -5 -10 -11 -10 -5 0 -7 5 -4 10 3 6 8 10
11 10 2 0 4 -4 4 -10z"/>
<path d="M3460 1985 l0 -195 40 0 c107 0 144 51 144 200 0 143 -32 190 -131
190 l-53 0 0 -195z"/>
</g>
</svg>
